<?xml version="1.0" standalone="no"?><!DOCTYPE svg PUBLIC "-//W3C//DTD SVG 1.1//EN" "http://www.w3.org/Graphics/SVG/1.1/DTD/svg11.dtd"><svg t="1701618871266" class="icon" viewBox="0 0 1024 1024" version="1.1" xmlns="http://www.w3.org/2000/svg" p-id="1475" xmlns:xlink="http://www.w3.org/1999/xlink" width="32" height="32"><path d="M549.248 108.16l4.352 3.456 394.976 342.08a33.6 33.6 0 0 1 3.84 46.592 31.872 31.872 0 0 1-22.4 11.616V512h-832a31.968 31.968 0 0 1-26.4-11.712 33.664 33.664 0 0 1 0.896-43.712l2.912-2.88L470.4 111.648a63.232 63.232 0 0 1 78.848-3.456zM864 512v352a64 64 0 0 1-64 64H224a64 64 0 0 1-64-64V512h704z m-320 96h-64a64 64 0 0 0-63.84 59.2L416 672v192h192v-192a64 64 0 0 0-59.2-63.84L544 608z" fill="#000000" p-id="1476"></path></svg>